<svg width="1920" height="844" viewBox="0 0 1920 844" fill="none" xmlns="http://www.w3.org/2000/svg">
<path opacity="0.02" d="M1573.75 724.424V607.85L1208.48 606.185L843.218 605.074L844.883 572.878L846.549 541.236L1382.23 538.461C1677 536.796 1918.47 535.13 1919.58 534.02C1920.14 533.465 1920.14 413.56 1919.58 268.12L1917.92 2.77561L958.681 1.11043L0 0L1.11015 120.46L2.77555 241.475L834.891 243.14C1438.85 243.695 1669.23 245.916 1674.78 250.357C1682.55 257.018 1684.22 275.892 1678.66 290.88C1675.33 298.651 1623.15 299.762 1144.09 299.762C738.301 299.762 611.18 301.427 606.184 306.423C601.188 311.419 599.523 377.478 599.523 569.547C599.523 710.546 601.188 830.451 602.854 834.892C606.184 843.218 652.259 843.773 1090.24 842.663L1573.75 840.998V724.424Z" fill="#002949"/>
</svg>
