        <svg
            width="149"
            height="56"
            viewBox="0 0 149 56"
            fill="none"
            xmlns="http://www.w3.org/2000/svg"
        >
            <path
                d="M11.0819 25.24V30.4H5.92189H0.761883V25.24V20.08H5.92189H11.0819V25.24Z"
                fill="#002949"
            />
            <path
                d="M11.0819 37.6V42.88L5.99388 42.832L0.881888 42.76L0.809886 37.528L0.761883 32.32H5.92189H11.0819V37.6Z"
                fill="#002949"
            />
            <path
                d="M81.0419 11.56V16.6L65.2499 16.672L49.4579 16.72L49.5299 18.112L49.6019 19.48L72.7619 19.6C85.5059 19.672 95.9459 19.744 95.9939 19.792C96.0179 19.816 96.0179 25 95.9939 31.288L95.9219 42.76L54.4499 42.832L13.0019 42.88L13.0499 37.672L13.1219 32.44L49.0979 32.368C75.2099 32.344 85.1699 32.248 85.4099 32.056C85.7459 31.768 85.8179 30.952 85.5779 30.304C85.4339 29.968 83.1779 29.92 62.4659 29.92C44.9219 29.92 39.4259 29.848 39.2099 29.632C38.9939 29.416 38.9219 26.56 38.9219 18.256C38.9219 12.16 38.9939 6.976 39.0659 6.784C39.2099 6.424 41.2019 6.4 60.1379 6.448L81.0419 6.51999V11.56Z"
                fill="#002949"
            />
            <path d="M148.218 45.184C148.554 45.304 148.602 45.976 148.602 50.224V55.12H143.586C139.242 55.12 138.546 55.072 138.426 54.736C138.354 54.52 138.282 52.384 138.282 49.96C138.282 46 138.33 45.52 138.714 45.304C139.146 45.04 147.57 44.944 148.218 45.184Z"
                fill="#002949"
            />
            <path
                d="M134.394 16.528L134.442 32.32H136.242H138.042V26.344C138.042 21.568 138.114 20.32 138.378 20.104C138.594 19.912 140.178 19.84 143.586 19.888L148.482 19.96V31.36V42.76L135.282 42.88L122.082 43L122.01 48.856C121.986 52.696 121.866 54.832 121.698 55.048C121.314 55.504 112.05 55.504 111.666 55.048C111.498 54.832 111.378 52.696 111.354 48.856L111.282 43L105.114 42.928L98.9219 42.88V31.48V20.08H110.154C118.578 20.08 121.458 20.152 121.674 20.368C121.89 20.584 121.962 22.264 121.962 26.488V32.32H123.042H124.122V16.768C124.122 4.84 124.194 1.144 124.41 0.927994C124.626 0.71199 125.97 0.639999 129.522 0.687996L134.322 0.759995L134.394 16.528Z"
                fill="#002949"
            />
            <path
                d="M24.2339 23.968L24.2819 28.96H19.1219H13.9619V23.92V18.88L19.0739 18.928L24.1619 19L24.2339 23.968Z"
                fill="#02ADFF"
            />
        </svg>